<?xml version="1.0" standalone="no"?><!DOCTYPE svg PUBLIC "-//W3C//DTD SVG 1.1//EN" "http://www.w3.org/Graphics/SVG/1.1/DTD/svg11.dtd"><svg t="1776394789246" class="icon" viewBox="0 0 1024 1024" version="1.1" xmlns="http://www.w3.org/2000/svg" p-id="9665" xmlns:xlink="http://www.w3.org/1999/xlink" width="200" height="200"><path d="M95.1 498.1c7.4-223.8 191.2-403 416.9-403s409.6 179.2 416.9 403c-2.4-0.8-4.9-1.2-7.4-1.2H784.1c-11.6-140.1-129-250.2-272.1-250.2-143.1 0-260.6 110.1-272.1 250.2H102.4c-2.5-0.1-5 0.3-7.3 1.2z m1.4 51c1.9 0.5 3.9 0.8 6 0.8h166.9c6 0 11.8-2.4 16.1-6.7 4.3-4.3 6.7-10.1 6.7-16.1h0.1c-0.1-2.5-0.1-5.1-0.1-7.6 0-121.4 98.5-219.8 220-219.8s220 98.4 220 219.8c0 2.5 0 5.1-0.1 7.6h0.1c0 6 2.4 11.8 6.7 16.1 4.3 4.3 10.1 6.7 16.1 6.7h166.9c2.1 0 4.1-0.3 6-0.8C908.7 762 729.9 928.9 512 928.9c-217.9 0-396.7-166.9-415.5-379.8z m419.3 99.4c77.5 0 140.3-62.8 140.3-140.2 0-77.4-62.8-140.2-140.3-140.2s-140.3 62.8-140.3 140.2c0 77.4 62.8 140.2 140.3 140.2z m0.2-53.1c-48.2 0-87.2-39-87.2-87.2 0-48.1 39.1-87.2 87.2-87.2 48.2 0 87.2 39 87.2 87.2 0.1 48.2-39 87.2-87.2 87.2z m0-60.7c10.7 0 20.4-6.5 24.5-16.4 4.1-9.9 1.8-21.3-5.8-28.9-7.6-7.6-19-9.9-28.9-5.7-9.9 4.1-16.4 13.8-16.4 24.5 0.1 14.7 12 26.5 26.6 26.5z m0 0" p-id="9666"></path></svg>